#VRML V1.0 ascii
# Generated to mimic g4beamline viewer=VRML1FILE output
Separator {
	DEF Solenoid_1_outer Separator {
		Material {
			diffuseColor 0.2 0.5 0.9
			transparency 0.7
		}
		Coordinate3 {
			point [
				60.00 0.00 200.00,
				60.00 0.00 700.00,
				57.96 15.53 200.00,
				57.96 15.53 700.00,
				51.96 30.00 200.00,
				51.96 30.00 700.00,
				42.43 42.43 200.00,
				42.43 42.43 700.00,
				30.00 51.96 200.00,
				30.00 51.96 700.00,
				15.53 57.96 200.00,
				15.53 57.96 700.00,
				0.00 60.00 200.00,
				0.00 60.00 700.00,
				-15.53 57.96 200.00,
				-15.53 57.96 700.00,
				-30.00 51.96 200.00,
				-30.00 51.96 700.00,
				-42.43 42.43 200.00,
				-42.43 42.43 700.00,
				-51.96 30.00 200.00,
				-51.96 30.00 700.00,
				-57.96 15.53 200.00,
				-57.96 15.53 700.00,
				-60.00 0.00 200.00,
				-60.00 0.00 700.00,
				-57.96 -15.53 200.00,
				-57.96 -15.53 700.00,
				-51.96 -30.00 200.00,
				-51.96 -30.00 700.00,
				-42.43 -42.43 200.00,
				-42.43 -42.43 700.00,
				-30.00 -51.96 200.00,
				-30.00 -51.96 700.00,
				-15.53 -57.96 200.00,
				-15.53 -57.96 700.00,
				-0.00 -60.00 200.00,
				-0.00 -60.00 700.00,
				15.53 -57.96 200.00,
				15.53 -57.96 700.00,
				30.00 -51.96 200.00,
				30.00 -51.96 700.00,
				42.43 -42.43 200.00,
				42.43 -42.43 700.00,
				51.96 -30.00 200.00,
				51.96 -30.00 700.00,
				57.96 -15.53 200.00,
				57.96 -15.53 700.00,
			]
		}
		IndexedFaceSet {
			coordIndex [
				0, 1, 3, 2, -1,
				2, 3, 5, 4, -1,
				4, 5, 7, 6, -1,
				6, 7, 9, 8, -1,
				8, 9, 11, 10, -1,
				10, 11, 13, 12, -1,
				12, 13, 15, 14, -1,
				14, 15, 17, 16, -1,
				16, 17, 19, 18, -1,
				18, 19, 21, 20, -1,
				20, 21, 23, 22, -1,
				22, 23, 25, 24, -1,
				24, 25, 27, 26, -1,
				26, 27, 29, 28, -1,
				28, 29, 31, 30, -1,
				30, 31, 33, 32, -1,
				32, 33, 35, 34, -1,
				34, 35, 37, 36, -1,
				36, 37, 39, 38, -1,
				38, 39, 41, 40, -1,
				40, 41, 43, 42, -1,
				42, 43, 45, 44, -1,
				44, 45, 47, 46, -1,
				46, 47, 1, 0, -1,
			]
		}
	}
	DEF Solenoid_1_inner Separator {
		Material {
			diffuseColor 0.2 0.5 0.9
			transparency 0.7
		}
		Coordinate3 {
			point [
				40.00 0.00 200.00,
				40.00 0.00 700.00,
				38.64 10.35 200.00,
				38.64 10.35 700.00,
				34.64 20.00 200.00,
				34.64 20.00 700.00,
				28.28 28.28 200.00,
				28.28 28.28 700.00,
				20.00 34.64 200.00,
				20.00 34.64 700.00,
				10.35 38.64 200.00,
				10.35 38.64 700.00,
				0.00 40.00 200.00,
				0.00 40.00 700.00,
				-10.35 38.64 200.00,
				-10.35 38.64 700.00,
				-20.00 34.64 200.00,
				-20.00 34.64 700.00,
				-28.28 28.28 200.00,
				-28.28 28.28 700.00,
				-34.64 20.00 200.00,
				-34.64 20.00 700.00,
				-38.64 10.35 200.00,
				-38.64 10.35 700.00,
				-40.00 0.00 200.00,
				-40.00 0.00 700.00,
				-38.64 -10.35 200.00,
				-38.64 -10.35 700.00,
				-34.64 -20.00 200.00,
				-34.64 -20.00 700.00,
				-28.28 -28.28 200.00,
				-28.28 -28.28 700.00,
				-20.00 -34.64 200.00,
				-20.00 -34.64 700.00,
				-10.35 -38.64 200.00,
				-10.35 -38.64 700.00,
				-0.00 -40.00 200.00,
				-0.00 -40.00 700.00,
				10.35 -38.64 200.00,
				10.35 -38.64 700.00,
				20.00 -34.64 200.00,
				20.00 -34.64 700.00,
				28.28 -28.28 200.00,
				28.28 -28.28 700.00,
				34.64 -20.00 200.00,
				34.64 -20.00 700.00,
				38.64 -10.35 200.00,
				38.64 -10.35 700.00,
			]
		}
		IndexedFaceSet {
			coordIndex [
				0, 1, 3, 2, -1,
				2, 3, 5, 4, -1,
				4, 5, 7, 6, -1,
				6, 7, 9, 8, -1,
				8, 9, 11, 10, -1,
				10, 11, 13, 12, -1,
				12, 13, 15, 14, -1,
				14, 15, 17, 16, -1,
				16, 17, 19, 18, -1,
				18, 19, 21, 20, -1,
				20, 21, 23, 22, -1,
				22, 23, 25, 24, -1,
				24, 25, 27, 26, -1,
				26, 27, 29, 28, -1,
				28, 29, 31, 30, -1,
				30, 31, 33, 32, -1,
				32, 33, 35, 34, -1,
				34, 35, 37, 36, -1,
				36, 37, 39, 38, -1,
				38, 39, 41, 40, -1,
				40, 41, 43, 42, -1,
				42, 43, 45, 44, -1,
				44, 45, 47, 46, -1,
				46, 47, 1, 0, -1,
			]
		}
	}
	DEF Solenoid_2_outer Separator {
		Material {
			diffuseColor 0.2 0.5 0.9
			transparency 0.7
		}
		Coordinate3 {
			point [
				60.00 0.00 900.00,
				60.00 0.00 1400.00,
				57.96 15.53 900.00,
				57.96 15.53 1400.00,
				51.96 30.00 900.00,
				51.96 30.00 1400.00,
				42.43 42.43 900.00,
				42.43 42.43 1400.00,
				30.00 51.96 900.00,
				30.00 51.96 1400.00,
				15.53 57.96 900.00,
				15.53 57.96 1400.00,
				0.00 60.00 900.00,
				0.00 60.00 1400.00,
				-15.53 57.96 900.00,
				-15.53 57.96 1400.00,
				-30.00 51.96 900.00,
				-30.00 51.96 1400.00,
				-42.43 42.43 900.00,
				-42.43 42.43 1400.00,
				-51.96 30.00 900.00,
				-51.96 30.00 1400.00,
				-57.96 15.53 900.00,
				-57.96 15.53 1400.00,
				-60.00 0.00 900.00,
				-60.00 0.00 1400.00,
				-57.96 -15.53 900.00,
				-57.96 -15.53 1400.00,
				-51.96 -30.00 900.00,
				-51.96 -30.00 1400.00,
				-42.43 -42.43 900.00,
				-42.43 -42.43 1400.00,
				-30.00 -51.96 900.00,
				-30.00 -51.96 1400.00,
				-15.53 -57.96 900.00,
				-15.53 -57.96 1400.00,
				-0.00 -60.00 900.00,
				-0.00 -60.00 1400.00,
				15.53 -57.96 900.00,
				15.53 -57.96 1400.00,
				30.00 -51.96 900.00,
				30.00 -51.96 1400.00,
				42.43 -42.43 900.00,
				42.43 -42.43 1400.00,
				51.96 -30.00 900.00,
				51.96 -30.00 1400.00,
				57.96 -15.53 900.00,
				57.96 -15.53 1400.00,
			]
		}
		IndexedFaceSet {
			coordIndex [
				0, 1, 3, 2, -1,
				2, 3, 5, 4, -1,
				4, 5, 7, 6, -1,
				6, 7, 9, 8, -1,
				8, 9, 11, 10, -1,
				10, 11, 13, 12, -1,
				12, 13, 15, 14, -1,
				14, 15, 17, 16, -1,
				16, 17, 19, 18, -1,
				18, 19, 21, 20, -1,
				20, 21, 23, 22, -1,
				22, 23, 25, 24, -1,
				24, 25, 27, 26, -1,
				26, 27, 29, 28, -1,
				28, 29, 31, 30, -1,
				30, 31, 33, 32, -1,
				32, 33, 35, 34, -1,
				34, 35, 37, 36, -1,
				36, 37, 39, 38, -1,
				38, 39, 41, 40, -1,
				40, 41, 43, 42, -1,
				42, 43, 45, 44, -1,
				44, 45, 47, 46, -1,
				46, 47, 1, 0, -1,
			]
		}
	}
	DEF Solenoid_2_inner Separator {
		Material {
			diffuseColor 0.2 0.5 0.9
			transparency 0.7
		}
		Coordinate3 {
			point [
				40.00 0.00 900.00,
				40.00 0.00 1400.00,
				38.64 10.35 900.00,
				38.64 10.35 1400.00,
				34.64 20.00 900.00,
				34.64 20.00 1400.00,
				28.28 28.28 900.00,
				28.28 28.28 1400.00,
				20.00 34.64 900.00,
				20.00 34.64 1400.00,
				10.35 38.64 900.00,
				10.35 38.64 1400.00,
				0.00 40.00 900.00,
				0.00 40.00 1400.00,
				-10.35 38.64 900.00,
				-10.35 38.64 1400.00,
				-20.00 34.64 900.00,
				-20.00 34.64 1400.00,
				-28.28 28.28 900.00,
				-28.28 28.28 1400.00,
				-34.64 20.00 900.00,
				-34.64 20.00 1400.00,
				-38.64 10.35 900.00,
				-38.64 10.35 1400.00,
				-40.00 0.00 900.00,
				-40.00 0.00 1400.00,
				-38.64 -10.35 900.00,
				-38.64 -10.35 1400.00,
				-34.64 -20.00 900.00,
				-34.64 -20.00 1400.00,
				-28.28 -28.28 900.00,
				-28.28 -28.28 1400.00,
				-20.00 -34.64 900.00,
				-20.00 -34.64 1400.00,
				-10.35 -38.64 900.00,
				-10.35 -38.64 1400.00,
				-0.00 -40.00 900.00,
				-0.00 -40.00 1400.00,
				10.35 -38.64 900.00,
				10.35 -38.64 1400.00,
				20.00 -34.64 900.00,
				20.00 -34.64 1400.00,
				28.28 -28.28 900.00,
				28.28 -28.28 1400.00,
				34.64 -20.00 900.00,
				34.64 -20.00 1400.00,
				38.64 -10.35 900.00,
				38.64 -10.35 1400.00,
			]
		}
		IndexedFaceSet {
			coordIndex [
				0, 1, 3, 2, -1,
				2, 3, 5, 4, -1,
				4, 5, 7, 6, -1,
				6, 7, 9, 8, -1,
				8, 9, 11, 10, -1,
				10, 11, 13, 12, -1,
				12, 13, 15, 14, -1,
				14, 15, 17, 16, -1,
				16, 17, 19, 18, -1,
				18, 19, 21, 20, -1,
				20, 21, 23, 22, -1,
				22, 23, 25, 24, -1,
				24, 25, 27, 26, -1,
				26, 27, 29, 28, -1,
				28, 29, 31, 30, -1,
				30, 31, 33, 32, -1,
				32, 33, 35, 34, -1,
				34, 35, 37, 36, -1,
				36, 37, 39, 38, -1,
				38, 39, 41, 40, -1,
				40, 41, 43, 42, -1,
				42, 43, 45, 44, -1,
				44, 45, 47, 46, -1,
				46, 47, 1, 0, -1,
			]
		}
	}
	DEF Solenoid_3_outer Separator {
		Material {
			diffuseColor 0.2 0.5 0.9
			transparency 0.7
		}
		Coordinate3 {
			point [
				60.00 0.00 1600.00,
				60.00 0.00 2100.00,
				57.96 15.53 1600.00,
				57.96 15.53 2100.00,
				51.96 30.00 1600.00,
				51.96 30.00 2100.00,
				42.43 42.43 1600.00,
				42.43 42.43 2100.00,
				30.00 51.96 1600.00,
				30.00 51.96 2100.00,
				15.53 57.96 1600.00,
				15.53 57.96 2100.00,
				0.00 60.00 1600.00,
				0.00 60.00 2100.00,
				-15.53 57.96 1600.00,
				-15.53 57.96 2100.00,
				-30.00 51.96 1600.00,
				-30.00 51.96 2100.00,
				-42.43 42.43 1600.00,
				-42.43 42.43 2100.00,
				-51.96 30.00 1600.00,
				-51.96 30.00 2100.00,
				-57.96 15.53 1600.00,
				-57.96 15.53 2100.00,
				-60.00 0.00 1600.00,
				-60.00 0.00 2100.00,
				-57.96 -15.53 1600.00,
				-57.96 -15.53 2100.00,
				-51.96 -30.00 1600.00,
				-51.96 -30.00 2100.00,
				-42.43 -42.43 1600.00,
				-42.43 -42.43 2100.00,
				-30.00 -51.96 1600.00,
				-30.00 -51.96 2100.00,
				-15.53 -57.96 1600.00,
				-15.53 -57.96 2100.00,
				-0.00 -60.00 1600.00,
				-0.00 -60.00 2100.00,
				15.53 -57.96 1600.00,
				15.53 -57.96 2100.00,
				30.00 -51.96 1600.00,
				30.00 -51.96 2100.00,
				42.43 -42.43 1600.00,
				42.43 -42.43 2100.00,
				51.96 -30.00 1600.00,
				51.96 -30.00 2100.00,
				57.96 -15.53 1600.00,
				57.96 -15.53 2100.00,
			]
		}
		IndexedFaceSet {
			coordIndex [
				0, 1, 3, 2, -1,
				2, 3, 5, 4, -1,
				4, 5, 7, 6, -1,
				6, 7, 9, 8, -1,
				8, 9, 11, 10, -1,
				10, 11, 13, 12, -1,
				12, 13, 15, 14, -1,
				14, 15, 17, 16, -1,
				16, 17, 19, 18, -1,
				18, 19, 21, 20, -1,
				20, 21, 23, 22, -1,
				22, 23, 25, 24, -1,
				24, 25, 27, 26, -1,
				26, 27, 29, 28, -1,
				28, 29, 31, 30, -1,
				30, 31, 33, 32, -1,
				32, 33, 35, 34, -1,
				34, 35, 37, 36, -1,
				36, 37, 39, 38, -1,
				38, 39, 41, 40, -1,
				40, 41, 43, 42, -1,
				42, 43, 45, 44, -1,
				44, 45, 47, 46, -1,
				46, 47, 1, 0, -1,
			]
		}
	}
	DEF Solenoid_3_inner Separator {
		Material {
			diffuseColor 0.2 0.5 0.9
			transparency 0.7
		}
		Coordinate3 {
			point [
				40.00 0.00 1600.00,
				40.00 0.00 2100.00,
				38.64 10.35 1600.00,
				38.64 10.35 2100.00,
				34.64 20.00 1600.00,
				34.64 20.00 2100.00,
				28.28 28.28 1600.00,
				28.28 28.28 2100.00,
				20.00 34.64 1600.00,
				20.00 34.64 2100.00,
				10.35 38.64 1600.00,
				10.35 38.64 2100.00,
				0.00 40.00 1600.00,
				0.00 40.00 2100.00,
				-10.35 38.64 1600.00,
				-10.35 38.64 2100.00,
				-20.00 34.64 1600.00,
				-20.00 34.64 2100.00,
				-28.28 28.28 1600.00,
				-28.28 28.28 2100.00,
				-34.64 20.00 1600.00,
				-34.64 20.00 2100.00,
				-38.64 10.35 1600.00,
				-38.64 10.35 2100.00,
				-40.00 0.00 1600.00,
				-40.00 0.00 2100.00,
				-38.64 -10.35 1600.00,
				-38.64 -10.35 2100.00,
				-34.64 -20.00 1600.00,
				-34.64 -20.00 2100.00,
				-28.28 -28.28 1600.00,
				-28.28 -28.28 2100.00,
				-20.00 -34.64 1600.00,
				-20.00 -34.64 2100.00,
				-10.35 -38.64 1600.00,
				-10.35 -38.64 2100.00,
				-0.00 -40.00 1600.00,
				-0.00 -40.00 2100.00,
				10.35 -38.64 1600.00,
				10.35 -38.64 2100.00,
				20.00 -34.64 1600.00,
				20.00 -34.64 2100.00,
				28.28 -28.28 1600.00,
				28.28 -28.28 2100.00,
				34.64 -20.00 1600.00,
				34.64 -20.00 2100.00,
				38.64 -10.35 1600.00,
				38.64 -10.35 2100.00,
			]
		}
		IndexedFaceSet {
			coordIndex [
				0, 1, 3, 2, -1,
				2, 3, 5, 4, -1,
				4, 5, 7, 6, -1,
				6, 7, 9, 8, -1,
				8, 9, 11, 10, -1,
				10, 11, 13, 12, -1,
				12, 13, 15, 14, -1,
				14, 15, 17, 16, -1,
				16, 17, 19, 18, -1,
				18, 19, 21, 20, -1,
				20, 21, 23, 22, -1,
				22, 23, 25, 24, -1,
				24, 25, 27, 26, -1,
				26, 27, 29, 28, -1,
				28, 29, 31, 30, -1,
				30, 31, 33, 32, -1,
				32, 33, 35, 34, -1,
				34, 35, 37, 36, -1,
				36, 37, 39, 38, -1,
				38, 39, 41, 40, -1,
				40, 41, 43, 42, -1,
				42, 43, 45, 44, -1,
				44, 45, 47, 46, -1,
				46, 47, 1, 0, -1,
			]
		}
	}
	DEF Solenoid_4_outer Separator {
		Material {
			diffuseColor 0.2 0.5 0.9
			transparency 0.7
		}
		Coordinate3 {
			point [
				60.00 0.00 2300.00,
				60.00 0.00 2800.00,
				57.96 15.53 2300.00,
				57.96 15.53 2800.00,
				51.96 30.00 2300.00,
				51.96 30.00 2800.00,
				42.43 42.43 2300.00,
				42.43 42.43 2800.00,
				30.00 51.96 2300.00,
				30.00 51.96 2800.00,
				15.53 57.96 2300.00,
				15.53 57.96 2800.00,
				0.00 60.00 2300.00,
				0.00 60.00 2800.00,
				-15.53 57.96 2300.00,
				-15.53 57.96 2800.00,
				-30.00 51.96 2300.00,
				-30.00 51.96 2800.00,
				-42.43 42.43 2300.00,
				-42.43 42.43 2800.00,
				-51.96 30.00 2300.00,
				-51.96 30.00 2800.00,
				-57.96 15.53 2300.00,
				-57.96 15.53 2800.00,
				-60.00 0.00 2300.00,
				-60.00 0.00 2800.00,
				-57.96 -15.53 2300.00,
				-57.96 -15.53 2800.00,
				-51.96 -30.00 2300.00,
				-51.96 -30.00 2800.00,
				-42.43 -42.43 2300.00,
				-42.43 -42.43 2800.00,
				-30.00 -51.96 2300.00,
				-30.00 -51.96 2800.00,
				-15.53 -57.96 2300.00,
				-15.53 -57.96 2800.00,
				-0.00 -60.00 2300.00,
				-0.00 -60.00 2800.00,
				15.53 -57.96 2300.00,
				15.53 -57.96 2800.00,
				30.00 -51.96 2300.00,
				30.00 -51.96 2800.00,
				42.43 -42.43 2300.00,
				42.43 -42.43 2800.00,
				51.96 -30.00 2300.00,
				51.96 -30.00 2800.00,
				57.96 -15.53 2300.00,
				57.96 -15.53 2800.00,
			]
		}
		IndexedFaceSet {
			coordIndex [
				0, 1, 3, 2, -1,
				2, 3, 5, 4, -1,
				4, 5, 7, 6, -1,
				6, 7, 9, 8, -1,
				8, 9, 11, 10, -1,
				10, 11, 13, 12, -1,
				12, 13, 15, 14, -1,
				14, 15, 17, 16, -1,
				16, 17, 19, 18, -1,
				18, 19, 21, 20, -1,
				20, 21, 23, 22, -1,
				22, 23, 25, 24, -1,
				24, 25, 27, 26, -1,
				26, 27, 29, 28, -1,
				28, 29, 31, 30, -1,
				30, 31, 33, 32, -1,
				32, 33, 35, 34, -1,
				34, 35, 37, 36, -1,
				36, 37, 39, 38, -1,
				38, 39, 41, 40, -1,
				40, 41, 43, 42, -1,
				42, 43, 45, 44, -1,
				44, 45, 47, 46, -1,
				46, 47, 1, 0, -1,
			]
		}
	}
	DEF Solenoid_4_inner Separator {
		Material {
			diffuseColor 0.2 0.5 0.9
			transparency 0.7
		}
		Coordinate3 {
			point [
				40.00 0.00 2300.00,
				40.00 0.00 2800.00,
				38.64 10.35 2300.00,
				38.64 10.35 2800.00,
				34.64 20.00 2300.00,
				34.64 20.00 2800.00,
				28.28 28.28 2300.00,
				28.28 28.28 2800.00,
				20.00 34.64 2300.00,
				20.00 34.64 2800.00,
				10.35 38.64 2300.00,
				10.35 38.64 2800.00,
				0.00 40.00 2300.00,
				0.00 40.00 2800.00,
				-10.35 38.64 2300.00,
				-10.35 38.64 2800.00,
				-20.00 34.64 2300.00,
				-20.00 34.64 2800.00,
				-28.28 28.28 2300.00,
				-28.28 28.28 2800.00,
				-34.64 20.00 2300.00,
				-34.64 20.00 2800.00,
				-38.64 10.35 2300.00,
				-38.64 10.35 2800.00,
				-40.00 0.00 2300.00,
				-40.00 0.00 2800.00,
				-38.64 -10.35 2300.00,
				-38.64 -10.35 2800.00,
				-34.64 -20.00 2300.00,
				-34.64 -20.00 2800.00,
				-28.28 -28.28 2300.00,
				-28.28 -28.28 2800.00,
				-20.00 -34.64 2300.00,
				-20.00 -34.64 2800.00,
				-10.35 -38.64 2300.00,
				-10.35 -38.64 2800.00,
				-0.00 -40.00 2300.00,
				-0.00 -40.00 2800.00,
				10.35 -38.64 2300.00,
				10.35 -38.64 2800.00,
				20.00 -34.64 2300.00,
				20.00 -34.64 2800.00,
				28.28 -28.28 2300.00,
				28.28 -28.28 2800.00,
				34.64 -20.00 2300.00,
				34.64 -20.00 2800.00,
				38.64 -10.35 2300.00,
				38.64 -10.35 2800.00,
			]
		}
		IndexedFaceSet {
			coordIndex [
				0, 1, 3, 2, -1,
				2, 3, 5, 4, -1,
				4, 5, 7, 6, -1,
				6, 7, 9, 8, -1,
				8, 9, 11, 10, -1,
				10, 11, 13, 12, -1,
				12, 13, 15, 14, -1,
				14, 15, 17, 16, -1,
				16, 17, 19, 18, -1,
				18, 19, 21, 20, -1,
				20, 21, 23, 22, -1,
				22, 23, 25, 24, -1,
				24, 25, 27, 26, -1,
				26, 27, 29, 28, -1,
				28, 29, 31, 30, -1,
				30, 31, 33, 32, -1,
				32, 33, 35, 34, -1,
				34, 35, 37, 36, -1,
				36, 37, 39, 38, -1,
				38, 39, 41, 40, -1,
				40, 41, 43, 42, -1,
				42, 43, 45, 44, -1,
				44, 45, 47, 46, -1,
				46, 47, 1, 0, -1,
			]
		}
	}
	DEF Collimator Separator {
		Material {
			diffuseColor 0.9 0.45 0.15
			transparency 0.7
		}
		Coordinate3 {
			point [
				70.00 0.00 60.00,
				70.00 0.00 140.00,
				67.61 18.12 60.00,
				67.61 18.12 140.00,
				60.62 35.00 60.00,
				60.62 35.00 140.00,
				49.50 49.50 60.00,
				49.50 49.50 140.00,
				35.00 60.62 60.00,
				35.00 60.62 140.00,
				18.12 67.61 60.00,
				18.12 67.61 140.00,
				0.00 70.00 60.00,
				0.00 70.00 140.00,
				-18.12 67.61 60.00,
				-18.12 67.61 140.00,
				-35.00 60.62 60.00,
				-35.00 60.62 140.00,
				-49.50 49.50 60.00,
				-49.50 49.50 140.00,
				-60.62 35.00 60.00,
				-60.62 35.00 140.00,
				-67.61 18.12 60.00,
				-67.61 18.12 140.00,
				-70.00 0.00 60.00,
				-70.00 0.00 140.00,
				-67.61 -18.12 60.00,
				-67.61 -18.12 140.00,
				-60.62 -35.00 60.00,
				-60.62 -35.00 140.00,
				-49.50 -49.50 60.00,
				-49.50 -49.50 140.00,
				-35.00 -60.62 60.00,
				-35.00 -60.62 140.00,
				-18.12 -67.61 60.00,
				-18.12 -67.61 140.00,
				-0.00 -70.00 60.00,
				-0.00 -70.00 140.00,
				18.12 -67.61 60.00,
				18.12 -67.61 140.00,
				35.00 -60.62 60.00,
				35.00 -60.62 140.00,
				49.50 -49.50 60.00,
				49.50 -49.50 140.00,
				60.62 -35.00 60.00,
				60.62 -35.00 140.00,
				67.61 -18.12 60.00,
				67.61 -18.12 140.00,
			]
		}
		IndexedFaceSet {
			coordIndex [
				0, 1, 3, 2, -1,
				2, 3, 5, 4, -1,
				4, 5, 7, 6, -1,
				6, 7, 9, 8, -1,
				8, 9, 11, 10, -1,
				10, 11, 13, 12, -1,
				12, 13, 15, 14, -1,
				14, 15, 17, 16, -1,
				16, 17, 19, 18, -1,
				18, 19, 21, 20, -1,
				20, 21, 23, 22, -1,
				22, 23, 25, 24, -1,
				24, 25, 27, 26, -1,
				26, 27, 29, 28, -1,
				28, 29, 31, 30, -1,
				30, 31, 33, 32, -1,
				32, 33, 35, 34, -1,
				34, 35, 37, 36, -1,
				36, 37, 39, 38, -1,
				38, 39, 41, 40, -1,
				40, 41, 43, 42, -1,
				42, 43, 45, 44, -1,
				44, 45, 47, 46, -1,
				46, 47, 1, 0, -1,
			]
		}
	}
}
